
    <svg width="1275" height="1163" viewBox="0 0 1275 1163" fill="none" xmlns="http://www.w3.org/2000/svg"> <g filter="url(#filter0_d)"> <circle cx="517" cy="941" r="1" fill="#7A9FFF"/> </g> <g filter="url(#filter)"> <circle cx="574" cy="862" r="1" fill="#7A9FFF"/> </g> <g filter="url(#filter)"> <circle cx="653" cy="989" r="1" fill="#7A9FFF"/> </g> <g filter="url(#filter)"> <circle cx="710" cy="878" r="1" fill="#7A9FFF"/> </g> <g filter="url(#filter)"> <circle cx="661" cy="767" r="1" fill="#7A9FFF"/> </g> <g filter="url(#filter)"> <circle cx="812" cy="893" r="1" fill="#7A9FFF"/> </g> <g filter="url(#filter)"> <circle cx="961" cy="1129" r="1" fill="#7A9FFF"/> </g> <g filter="url(#filter)"> <circle cx="1053" cy="1023" r="1" fill="#7A9FFF"/> </g> <g filter="url(#filter)"> <circle cx="968" cy="776" r="1" fill="#7A9FFF"/> </g> <g filter="url(#filter)"> <circle cx="1007" cy="641" r="1" fill="#7A9FFF"/> </g> <g filter="url(#filter)"> <circle cx="786" cy="348" r="1" fill="#7A9FFF"/> </g> <g filter="url(#filter)"> <circle cx="865" cy="475" r="1" fill="#7A9FFF"/> </g> <g filter="url(#filter)"> <circle cx="922" cy="364" r="1" fill="#7A9FFF"/> </g> <g filter="url(#filter)"> <circle cx="873" cy="253" r="1" fill="#7A9FFF"/> </g> <g filter="url(#filter)"> <circle cx="1024" cy="379" r="1" fill="#7A9FFF"/> </g> <g filter="url(#filter)"> <circle cx="1173" cy="615" r="1" fill="#7A9FFF"/> </g> <g filter="url(#filter)"> <circle cx="1265" cy="509" r="1" fill="#7A9FFF"/> </g> <g filter="url(#filter)"> <circle cx="1180" cy="262" r="1" fill="#7A9FFF"/> </g> <g filter="url(#filter)"> <circle cx="1219" cy="127" r="1" fill="#7A9FFF"/> </g> <g filter="url(#filter)"> <circle cx="250" cy="231" r="1" fill="#7A9FFF"/> </g> <g filter="url(#filter)"> <circle cx="329" cy="358" r="1" fill="#7A9FFF"/> </g> <g filter="url(#filter)"> <circle cx="386" cy="247" r="1" fill="#7A9FFF"/> </g> <g filter="url(#filter)"> <circle cx="337" cy="136" r="1" fill="#7A9FFF"/> </g> <g filter="url(#filter)"> <circle cx="488" cy="262" r="1" fill="#7A9FFF"/> </g> <g filter="url(#filter)"> <circle cx="637" cy="498" r="1" fill="#7A9FFF"/> </g> <g filter="url(#filter)"> <circle cx="729" cy="392" r="1" fill="#7A9FFF"/> </g> <g filter="url(#filter)"> <circle cx="644" cy="145" r="1" fill="#7A9FFF"/> </g> <g filter="url(#filter)"> <circle cx="683" cy="10" r="1" fill="#7A9FFF"/> </g> <g filter="url(#filter)"> <circle cx="10" cy="650" r="1" fill="#7A9FFF"/> </g> <g filter="url(#filter)"> <circle cx="89" cy="777" r="1" fill="#7A9FFF"/> </g> <g filter="url(#filter)"> <circle cx="146" cy="666" r="1" fill="#7A9FFF"/> </g> <g filter="url(#filter)"> <circle cx="97" cy="555" r="1" fill="#7A9FFF"/> </g> <g filter="url(#filter)"> <circle cx="248" cy="681" r="1" fill="#7A9FFF"/> </g> <g filter="url(#filter)"> <circle cx="397" cy="917" r="1" fill="#7A9FFF"/> </g> <g filter="url(#filter)"> <circle cx="445" cy="1111" r="1" fill="#7A9FFF"/> </g> <g filter="url(#filter)"> <circle cx="59" cy="1153" r="1" fill="#7A9FFF"/> </g> <g filter="url(#filter)"> <circle cx="181" cy="975" r="1" fill="#7A9FFF"/> </g> <g filter="url(#filter)"> <circle cx="441" cy="699" r="1" fill="#7A9FFF"/> </g> <g filter="url(#filter)"> <circle cx="1193" cy="845" r="1" fill="#7A9FFF"/> </g> <g filter="url(#filter)"> <circle cx="1243" cy="1151" r="1" fill="#7A9FFF"/> </g> <g filter="url(#filter)"> <circle cx="708" cy="679" r="1" fill="#7A9FFF"/> </g> <g filter="url(#filter)"> <circle cx="60" cy="245" r="1" fill="#7A9FFF"/> </g> <g filter="url(#filter)"> <circle cx="116" cy="33" r="1" fill="#7A9FFF"/> </g> <g filter="url(#filter)"> <circle cx="828" cy="63" r="1" fill="#7A9FFF"/> </g> <g filter="url(#filter)"> <circle cx="1016" cy="167" r="1" fill="#7A9FFF"/> </g><g filter="url(#filter)"> <circle cx="941.704" cy="761.577" r="2.5" transform="rotate(-89.7249 941.704 761.577)" fill="#7AAFFF" fill-opacity="0.3"/> </g> <g filter="url(#filter)"> <circle cx="862.979" cy="704.199" r="2.5" transform="rotate(-89.7249 862.979 704.199)" fill="#7AAFFF" fill-opacity="0.3"/> </g> <g filter="url(#filter)"> <circle cx="990.357" cy="625.809" r="2.5" transform="rotate(-89.7249 990.357 625.809)" fill="#7AAFFF" fill-opacity="0.3"/> </g> <g filter="url(#filter)"> <circle cx="879.631" cy="568.277" r="2.5" transform="rotate(-89.7249 879.631 568.277)" fill="#7AAFFF" fill-opacity="0.3"/> </g> <g filter="url(#filter)"> <circle cx="768.398" cy="616.743" r="2.5" transform="rotate(-89.7249 768.398 616.743)" fill="#7AAFFF" fill-opacity="0.3"/> </g> <g filter="url(#filter)"> <circle cx="895.121" cy="466.35" r="2.5" transform="rotate(-89.7249 895.121 466.35)" fill="#7AAFFF" fill-opacity="0.3"/> </g> <g filter="url(#filter)"> <circle cx="1131.83" cy="318.485" r="2.5" transform="rotate(-89.7249 1131.83 318.485)" fill="#7AAFFF" fill-opacity="0.3"/> </g> <g filter="url(#filter)"> <circle cx="1026.28" cy="225.977" r="2.5" transform="rotate(-89.7249 1026.28 225.977)" fill="#7AAFFF" fill-opacity="0.3"/> </g> <g filter="url(#filter)"> <circle cx="778.871" cy="309.79" r="2.5" transform="rotate(-89.7249 778.871 309.79)" fill="#7AAFFF" fill-opacity="0.3"/> </g> <g filter="url(#filter)"> <circle cx="644.06" cy="270.143" r="2.5" transform="rotate(-89.7249 644.06 270.143)" fill="#7AAFFF" fill-opacity="0.3"/> </g> <g filter="url(#filter)"> <circle cx="350.003" cy="489.734" r="2.5" transform="rotate(-89.7249 350.003 489.734)" fill="#7AAFFF" fill-opacity="0.3"/> </g> <g filter="url(#filter)"> <circle cx="477.38" cy="411.344" r="2.5" transform="rotate(-89.7249 477.38 411.344)" fill="#7AAFFF" fill-opacity="0.3"/> </g> <g filter="url(#filter)"> <circle cx="366.655" cy="353.812" r="2.5" transform="rotate(-89.7249 366.655 353.812)" fill="#7AAFFF" fill-opacity="0.3"/> </g> <g filter="url(#filter)"> <circle cx="255.421" cy="402.279" r="2.5" transform="rotate(-89.7249 255.421 402.279)" fill="#7AAFFF" fill-opacity="0.3"/> </g> <g filter="url(#filter)"> <circle cx="382.145" cy="251.885" r="2.5" transform="rotate(-89.7249 382.145 251.885)" fill="#7AAFFF" fill-opacity="0.3"/> </g> <g filter="url(#filter)"> <circle cx="618.857" cy="104.02" r="2.5" transform="rotate(-89.7249 618.857 104.02)" fill="#7AAFFF" fill-opacity="0.3"/> </g> <g filter="url(#filter)"> <circle cx="513.3" cy="11.512" r="2.5" transform="rotate(-89.7249 513.3 11.512)" fill="#7AAFFF" fill-opacity="0.3"/> </g> <g filter="url(#filter)"> <circle cx="265.895" cy="95.325" r="2.5" transform="rotate(-89.7249 265.895 95.325)" fill="#7AAFFF" fill-opacity="0.3"/> </g> <g filter="url(#filter)"> <circle cx="131.084" cy="55.6776" r="2.5" transform="rotate(-89.7249 131.084 55.6776)" fill="#7AAFFF" fill-opacity="0.3"/> </g> <g filter="url(#filter)"> <circle cx="230.431" cy="1025.17" r="2.5" transform="rotate(-89.7249 230.431 1025.17)" fill="#7AAFFF" fill-opacity="0.3"/> </g> <g filter="url(#filter)"> <circle cx="357.808" cy="946.776" r="2.5" transform="rotate(-89.7249 357.808 946.776)" fill="#7AAFFF" fill-opacity="0.3"/> </g> <g filter="url(#filter)"> <circle cx="247.083" cy="889.244" r="2.5" transform="rotate(-89.7249 247.083 889.244)" fill="#7AAFFF" fill-opacity="0.3"/> </g> <g filter="url(#filter)"> <circle cx="135.849" cy="937.711" r="2.5" transform="rotate(-89.7249 135.849 937.711)" fill="#7AAFFF" fill-opacity="0.3"/> </g> <g filter="url(#filter)"> <circle cx="262.573" cy="787.317" r="2.5" transform="rotate(-89.7249 262.573 787.317)" fill="#7AAFFF" fill-opacity="0.3"/> </g> <g filter="url(#filter)"> <circle cx="499.286" cy="639.452" r="2.5" transform="rotate(-89.7249 499.286 639.452)" fill="#7AAFFF" fill-opacity="0.3"/> </g> <g filter="url(#filter)"> <circle cx="393.728" cy="546.944" r="2.5" transform="rotate(-89.7249 393.728 546.944)" fill="#7AAFFF" fill-opacity="0.3"/> </g> <g filter="url(#filter)"> <circle cx="146.323" cy="630.757" r="2.5" transform="rotate(-89.7249 146.323 630.757)" fill="#7AAFFF" fill-opacity="0.3"/> </g> <g filter="url(#filter)"> <circle cx="11.512" cy="591.11" r="2.5" transform="rotate(-89.7249 11.512 591.11)" fill="#7AAFFF" fill-opacity="0.3"/> </g> <g filter="url(#filter)"> <circle cx="648.274" cy="1267.17" r="2.5" transform="rotate(-89.7249 648.274 1267.17)" fill="#7AAFFF" fill-opacity="0.3"/> </g> <g filter="url(#filter)"> <circle cx="775.651" cy="1188.79" r="2.5" transform="rotate(-89.7249 775.651 1188.79)" fill="#7AAFFF" fill-opacity="0.3"/> </g> <g filter="url(#filter)"> <circle cx="664.926" cy="1131.25" r="2.5" transform="rotate(-89.7249 664.926 1131.25)" fill="#7AAFFF" fill-opacity="0.3"/> </g> <g filter="url(#filter)"> <circle cx="553.692" cy="1179.72" r="2.5" transform="rotate(-89.7249 553.692 1179.72)" fill="#7AAFFF" fill-opacity="0.3"/> </g> <g filter="url(#filter)"> <circle cx="680.416" cy="1029.33" r="2.5" transform="rotate(-89.7249 680.416 1029.33)" fill="#7AAFFF" fill-opacity="0.3"/> </g> <g filter="url(#filter)"> <circle cx="917.128" cy="881.461" r="2.5" transform="rotate(-89.7249 917.128 881.461)" fill="#7AAFFF" fill-opacity="0.3"/> </g> <g filter="url(#filter)"> <circle cx="1111.36" cy="834.392" r="2.5" transform="rotate(-89.7249 1111.36 834.392)" fill="#7AAFFF" fill-opacity="0.3"/> </g> <g filter="url(#filter)"> <circle cx="1151.5" cy="1220.59" r="2.5" transform="rotate(-89.7249 1151.5 1220.59)" fill="#7AAFFF" fill-opacity="0.3"/> </g> <g filter="url(#filter)"> <circle cx="974.091" cy="1097.74" r="2.5" transform="rotate(-89.7249 974.091 1097.74)" fill="#7AAFFF" fill-opacity="0.3"/> </g> <g filter="url(#filter)"> <circle cx="699.342" cy="836.414" r="2.5" transform="rotate(-89.7249 699.342 836.414)" fill="#7AAFFF" fill-opacity="0.3"/> </g> <g filter="url(#filter)"> <circle cx="848.951" cy="85.1243" r="2.5" transform="rotate(-89.7249 848.951 85.1243)" fill="#7AAFFF" fill-opacity="0.3"/> </g> <g filter="url(#filter)"> <circle cx="1155.19" cy="36.5941" r="2.5" transform="rotate(-89.7249 1155.19 36.5941)" fill="#7AAFFF" fill-opacity="0.3"/> </g> <g filter="url(#filter)"> <circle cx="680.624" cy="569.322" r="2.5" transform="rotate(-89.7249 680.624 569.322)" fill="#7AAFFF" fill-opacity="0.3"/></g> <g filter="url(#filter)"> <circle cx="243.518" cy="1215.23" r="2.5" transform="rotate(-89.7249 243.518 1215.23)" fill="#7AAFFF" fill-opacity="0.3"/> </g> <g filter="url(#filter)"> <circle cx="31.7896" cy="1158.21" r="2.5" transform="rotate(-89.7249 31.7896 1158.21)" fill="#7AAFFF" fill-opacity="0.3"/> </g> <g filter="url(#filter)"> <circle cx="65.2075" cy="446.366" r="2.5" transform="rotate(-89.7249 65.2075 446.366)" fill="#7AAFFF" fill-opacity="0.3"/> </g> <g filter="url(#filter)"> <circle cx="170.109" cy="258.867" r="2.5" transform="rotate(-89.7249 170.109 258.867)" fill="#7AAFFF" fill-opacity="0.3"/> </g>     <defs> <filter x="-50%" y="-50%" width="200%" height="200%" filterUnits="objectBoundingBox" id="filter"><feOffset dx="0" dy="0" in="SourceAlpha" result="shadowOffsetOuter1"></feOffset><feGaussianBlur stdDeviation="15" in="shadowOffsetOuter1" result="shadowBlurOuter1"></feGaussianBlur><feColorMatrix values="0 0 0 0 0.266666667   0 0 0 0 0.694117647   0 0 0 0 0.607843137  0 0 0 0.7 0" in="shadowBlurOuter1" type="matrix" result="shadowMatrixOuter1"></feColorMatrix><feMerge><feMergeNode in="shadowMatrixOuter1"></feMergeNode><feMergeNode in="SourceGraphic"></feMergeNode></feMerge></filter></defs></svg>
